<svg xmlns="http://www.w3.org/2000/svg" viewBox="0 0 1000 1000" xmlns:v="https://vecta.io/nano">
  <rect width="1000" height="1000" fill="#F5F5F5" />
  <path stroke="#2C2C2C" fill="#2C2C2C" d="M559.85 19.34c-10.98 9.41-10.98 9.8-12.15 65.87-1.57 63.52 1.96 81.95 16.86 88.62 14.12 6.67 18.82 5.88 30.98-3.53l10.19-7.84V94.23 26l-10.19-7.84c-13.73-10.58-22.36-10.19-35.69 1.18zM174.79 180.89c-15.29 19.61-10.98 27.05 45.09 80.77 47.84 46.27 56.86 50.19 74.11 32.54 18.82-18.43 14.51-27.05-36.47-77.64-41.96-41.56-47.84-45.88-60.78-45.88-10.58.01-16.07 2.76-21.95 10.21zm690.12 73.72L781 338.52l-23.53-17.25c-52.94-39.21-109.4-57.25-179.2-57.25-66.66 0-118.03 16.08-172.53 52.94-121.56 83.52-165.08 250.17-99.99 385.45 7.45 15.68 20 36.47 27.45 46.27 7.45 10.19 13.72 19.61 13.72 21.57s-39.6 41.56-88.23 88.23c-48.23 47.05-89.01 88.62-90.19 92.93-6.27 20 19.21 44.7 37.25 36.47 4.31-1.96 47.84-42.35 97.24-90.19L392 811.03l19.61 12.94c99.2 65.48 234.88 64.3 336.44-2.35 138.04-90.2 177.25-285.47 85.1-422.32L821 381.26l84.31-85.09c74.89-74.89 84.7-86.27 84.7-97.24 0-16.47-11.76-28.23-28.62-28.23-11.39-.01-21.58 9.01-96.48 83.91zm-227.82 73.72c22.35 5.49 69.41 27.06 82.34 37.64l9.8 8.24-172.52 172.53c-172.14 172.53-172.53 172.92-179.2 163.9-10.19-13.33-29.41-53.72-34.51-73.33-19.6-71.75-7.83-146.26 32.16-205.86 57.64-86.65 160.38-127.04 261.93-103.12zm160.77 127.43c48.62 94.89 29.8 211.74-45.09 285.85-47.05 46.27-104.3 69.4-174.49 69.8-45.88 0-70.58-5.49-113.32-25.88l-32.94-15.68 172.14-172.14 176.06-170.96c1.96.78 10.19 13.72 17.64 29.01zM17.55 558.89c-9.8 9.8-10.2 27.84-.39 39.61 7.45 9.4 9.02 9.4 74.11 9.4 60 0 67.44-.79 74.89-7.45 10.59-9.8 10.98-30.98.39-41.57-7.06-7.06-12.94-7.84-74.5-7.84s-67.44.79-74.5 7.85z"/>
</svg>